<svg xmlns="http://www.w3.org/2000/svg" viewBox="0 0 128 128" fill="none"><defs><linearGradient id="crSilver" x1="35" y1="18" x2="89" y2="116" gradientUnits="userSpaceOnUse"><stop stop-color="#FFF"/><stop offset=".29" stop-color="#B6C5C5"/><stop offset=".55" stop-color="#5D7377"/><stop offset=".76" stop-color="#F3F9F5"/><stop offset="1" stop-color="#82999C"/></linearGradient></defs><path d="M43 21h42l-3 27c-3 12-9 18-18 18s-15-6-18-18Z" fill="url(#crSilver)" stroke="#153C32" stroke-width="4" stroke-linejoin="round"/><path d="M45 25c5 3 33 3 38 0M47 37c7 3 27 3 34 0" stroke="#FFF" stroke-opacity=".76" stroke-width="2.5" stroke-linecap="round"/><path d="M43 25H28v20c0 8 5 13 15 15M85 25h15v20c0 8-5 13-15 15" stroke="#153C32" stroke-width="5" stroke-linejoin="round"/><path d="M39 30H31v14c0 6 3 9 9 10m49-24h8v14c0 6-3 9-9 10" stroke="#EAF5F2" stroke-width="2" stroke-linejoin="round"/><path d="M58 66h12c-1 13-6 20-10 24h8c-4-4-9-11-10-24Z" fill="url(#crSilver)" stroke="#153C32" stroke-width="3.5"/><path d="M52 89h24l6 9H46Z" fill="url(#crSilver)" stroke="#153C32" stroke-width="4"/><path d="M43 98h42v17H43Z" fill="url(#crSilver)" stroke="#153C32" stroke-width="4"/><path d="M47 103h34" stroke="#FFF" stroke-opacity=".7" stroke-width="2" stroke-linecap="round"/><path d="M38 115h52v7H38Z" fill="#1D3135" stroke="#153C32" stroke-width="3"/></svg>
