<?xml version="1.0" encoding="UTF-8"?>
<svg xmlns="http://www.w3.org/2000/svg" viewBox="0 0 128 128">
  <circle cx="64.000" cy="64.000" r="56.000" fill="#F1D2D6"/>
  <circle cx="64.000" cy="64.000" r="50.788" fill="#FFF9F7"/>
  <circle cx="64.000" cy="64.000" r="49.117" fill="#8B1A2A"/>
  <path d="M 88.632 40.695 L 88.534 40.794 L 87.354 39.712 L 86.567 39.319 L 87.452 40.400 L 88.042 41.580 L 88.337 42.760 L 88.239 44.235 L 87.059 46.497 L 85.486 47.972 L 83.322 49.349 L 77.127 52.102 L 60.903 57.707 L 56.379 59.477 L 56.183 59.772 L 55.691 59.772 L 47.038 63.902 L 41.236 67.442 L 36.615 70.883 L 31.796 75.308 L 27.568 80.323 L 24.716 84.945 L 28.060 81.405 L 32.386 77.766 L 36.811 74.718 L 41.728 71.867 L 47.529 69.015 L 54.118 66.262 L 61.984 63.410 L 73.686 59.575 L 78.897 57.608 L 82.929 55.740 L 85.977 53.872 L 87.550 52.594 L 89.025 50.922 L 90.009 49.250 L 90.500 47.677 L 90.599 45.415 L 90.402 44.334 L 89.812 42.760 L 88.730 41.089 L 88.829 40.990 L 88.534 40.794 Z" fill="#F1D2D6" fill-rule="evenodd"/>
  <path d="M 98.170 99.104 L 96.204 100.973 L 92.959 103.529 L 87.255 107.069 L 81.061 109.823 L 76.242 111.298 L 72.014 112.183 L 66.704 112.773 L 60.903 112.773 L 56.281 112.281 L 52.643 111.593 L 49.004 110.609 L 46.153 109.626 L 42.121 107.856 L 45.071 109.233 L 49.693 110.904 L 56.576 112.478 L 61.394 112.969 L 66.606 112.969 L 71.424 112.478 L 78.307 110.904 L 84.502 108.544 L 88.337 106.578 L 91.779 104.414 L 94.925 102.054 Z" fill="#FFF9F7" fill-rule="evenodd"/>
  <path d="M 31.108 92.123 L 35.828 91.435 L 39.663 91.435 L 42.318 91.730 L 45.661 92.418 L 51.266 94.385 L 63.361 100.383 L 67.196 101.661 L 71.916 102.546 L 76.144 102.644 L 80.569 102.054 L 85.584 100.481 L 89.812 98.318 L 86.567 99.104 L 82.536 99.596 L 78.012 99.498 L 74.374 98.908 L 70.834 97.924 L 67.982 96.843 L 58.936 92.320 L 54.708 90.550 L 51.069 89.468 L 46.939 88.780 L 42.613 88.681 L 38.385 89.271 L 34.451 90.451 Z" fill="#FFF9F7" fill-rule="evenodd"/>
  <path d="M 24.520 88.583 L 27.076 87.501 L 30.223 86.518 L 36.123 85.338 L 39.073 85.043 L 44.678 85.043 L 47.431 85.338 L 51.463 86.125 L 55.101 87.206 L 59.624 88.976 L 67.196 92.418 L 72.604 94.385 L 77.422 95.565 L 81.159 96.056 L 87.059 95.958 L 92.172 94.876 L 96.990 92.811 L 99.645 91.140 L 101.120 89.960 L 96.204 91.730 L 91.189 92.713 L 87.255 92.910 L 83.027 92.516 L 79.192 91.631 L 75.161 90.255 L 70.637 88.288 L 64.246 85.141 L 59.723 83.273 L 54.708 81.798 L 48.414 80.913 L 44.874 80.913 L 41.826 81.208 L 38.581 81.798 L 35.730 82.585 L 32.976 83.568 L 29.436 85.240 L 26.388 87.108 Z" fill="#FFF9F7" fill-rule="evenodd"/>
  <path d="M 105.250 75.603 L 98.859 76.291 L 90.599 77.766 L 64.737 83.470 L 81.946 89.566 L 87.059 90.550 L 91.975 90.550 L 94.237 86.715 L 97.384 82.781 L 101.317 78.848 Z" fill="#FFF9F7" fill-rule="evenodd"/>
  <path d="M 79.782 59.378 L 73.981 61.738 L 59.329 66.557 L 53.528 69.015 L 49.791 71.080 L 45.661 73.932 L 43.203 75.996 L 40.351 78.946 L 43.104 78.061 L 47.628 77.078 L 51.758 76.586 L 56.773 76.488 L 61.099 76.881 L 64.344 77.471 L 67.294 78.258 L 72.604 80.225 L 75.554 75.013 L 77.422 70.490 L 79.094 64.590 Z" fill="#FFF9F7" fill-rule="evenodd"/>
  <path d="M 92.172 47.284 L 92.074 48.759 L 91.582 50.529 L 90.107 53.085 L 87.649 55.543 L 84.404 57.608 L 84.011 62.918 L 82.732 68.425 L 80.864 73.243 L 79.782 75.406 L 77.717 78.750 L 83.912 76.586 L 89.517 75.210 L 93.647 74.620 L 99.055 74.620 L 98.760 69.113 L 98.170 65.278 L 96.990 60.067 L 94.532 52.594 Z" fill="#FFF9F7" fill-rule="evenodd"/>
  <path d="M 73.981 25.257 L 75.554 27.027 L 77.226 29.387 L 80.176 34.795 L 82.339 40.597 L 83.224 44.039 L 83.716 46.989 L 85.879 45.317 L 86.862 43.744 L 87.157 42.564 L 87.157 41.580 L 86.469 39.319 L 86.665 39.220 L 87.354 39.614 L 88.632 40.794 L 85.486 36.172 L 82.339 32.435 L 78.602 28.797 Z" fill="#FFF9F7" fill-rule="evenodd"/>
  <path d="M 66.606 19.652 L 67.097 23.586 L 67.097 27.421 L 66.507 32.042 L 65.131 37.647 L 63.066 43.350 L 60.804 48.169 L 57.166 54.363 L 54.216 58.592 L 61.493 55.445 L 74.669 50.922 L 80.176 48.759 L 79.881 44.924 L 79.094 40.499 L 77.816 35.975 L 76.242 31.944 L 73.882 27.519 L 71.621 24.372 L 68.572 21.226 Z" fill="#FFF9F7" fill-rule="evenodd"/>
  <path d="M 77.226 16.801 L 72.604 15.719 L 68.081 15.129 L 61.394 15.031 L 58.051 15.326 L 53.429 16.112 L 49.693 17.096 L 45.071 18.767 L 40.450 21.029 L 44.186 19.161 L 49.299 17.292 L 53.921 16.112 L 58.248 15.424 L 61.788 15.129 L 68.081 15.227 L 72.309 15.719 Z" fill="#FFF9F7" fill-rule="evenodd"/>
</svg>