<?xml version="1.0" encoding="UTF-8"?>
<svg xmlns="http://www.w3.org/2000/svg" viewBox="0 0 128 128">
  <circle cx="64.000" cy="64.000" r="56.000" fill="#F2C500"/>
  <circle cx="64.000" cy="64.000" r="51.370" fill="#FFFDF5"/>
  <circle cx="64.000" cy="64.000" r="49.597" fill="#102B55"/>
  <path d="M 36.616 100.496 L 38.487 100.201 L 42.821 100.201 L 47.057 100.890 L 52.672 102.663 L 60.848 106.406 L 64.099 107.391 L 68.236 107.982 L 72.767 107.785 L 76.510 106.997 L 80.352 105.618 L 83.799 103.747 L 80.253 104.633 L 77.298 105.027 L 74.737 105.126 L 71.092 104.830 L 67.743 104.141 L 63.015 102.663 L 55.332 99.314 L 51.982 98.427 L 49.323 98.033 L 46.663 97.935 L 43.412 98.230 L 40.063 99.018 Z" fill="#FFFDF5" fill-rule="evenodd"/>
  <path d="M 101.136 96.753 L 96.999 100.890 L 92.369 104.535 L 87.247 107.687 L 82.814 109.755 L 88.035 107.293 L 92.862 104.239 L 97.689 100.299 Z" fill="#FFFDF5" fill-rule="evenodd"/>
  <path d="M 29.720 96.753 L 33.661 95.275 L 37.995 94.192 L 41.639 93.699 L 46.959 93.699 L 49.914 94.093 L 53.657 94.980 L 61.340 97.935 L 70.107 100.595 L 74.442 101.284 L 78.874 101.284 L 82.026 100.890 L 86.853 99.708 L 90.793 98.230 L 95.128 95.866 L 91.483 96.851 L 85.376 97.836 L 82.814 98.033 L 76.806 97.836 L 72.570 97.147 L 68.728 96.162 L 60.454 93.108 L 54.938 91.532 L 49.618 90.744 L 45.383 90.744 L 41.245 91.335 L 37.108 92.517 L 33.069 94.389 Z" fill="#FFFDF5" fill-rule="evenodd"/>
  <path d="M 52.770 88.872 L 57.991 90.055 L 58.582 89.069 L 59.567 88.084 L 61.242 87.099 L 63.901 86.508 L 66.561 86.804 L 69.122 88.084 L 70.403 89.464 L 71.191 91.434 L 71.191 93.896 L 72.668 94.389 L 74.245 94.487 L 74.343 91.040 L 75.033 89.464 L 75.624 88.675 L 76.609 87.789 L 78.283 86.902 L 80.352 86.508 L 81.829 86.607 L 84.193 87.493 L 86.164 89.365 L 86.952 91.237 L 87.050 94.487 L 89.907 94.487 L 90.005 91.434 L 90.399 90.153 L 91.187 88.872 L 93.059 87.296 L 94.241 86.804 L 95.916 86.508 L 97.393 86.607 L 98.674 87.001 L 100.053 87.789 L 101.333 89.069 L 101.924 90.055 L 102.417 91.828 L 105.077 87.986 L 106.751 84.834 L 62.424 84.735 L 60.355 85.031 L 57.203 86.016 L 55.036 87.099 Z" fill="#FFFDF5" fill-rule="evenodd"/>
  <path d="M 91.187 59.518 L 90.990 59.814 L 90.990 63.064 L 93.748 64.345 L 94.241 64.246 L 94.438 63.951 L 94.241 63.360 L 92.074 62.375 L 92.074 59.912 L 91.581 59.420 Z" fill="#FFFDF5" fill-rule="evenodd"/>
  <path d="M 85.770 56.661 L 85.770 66.709 L 84.391 66.807 L 84.391 67.595 L 85.080 68.186 L 85.080 77.150 L 82.617 77.249 L 82.519 81.977 L 78.382 81.977 L 76.904 83.652 L 107.441 83.652 L 108.130 81.977 L 101.432 81.977 L 101.333 77.347 L 98.969 77.249 L 98.772 77.052 L 98.772 68.285 L 99.462 67.595 L 99.462 66.807 L 98.181 66.709 L 98.181 56.760 Z M 96.901 79.712 L 98.772 79.810 L 98.674 82.470 L 96.802 82.371 Z M 85.179 79.712 L 87.050 79.810 L 86.952 82.470 L 85.080 82.371 Z M 95.423 68.974 L 96.211 69.270 L 96.605 70.058 L 96.605 78.431 L 96.408 78.628 L 94.438 78.529 L 94.438 69.763 L 94.931 69.172 Z M 91.877 68.974 L 92.369 69.073 L 92.862 69.566 L 93.059 70.452 L 93.059 78.431 L 92.862 78.628 L 90.892 78.529 L 90.892 69.763 L 91.483 69.073 Z M 88.331 68.974 L 88.823 69.073 L 89.414 69.763 L 89.316 78.628 L 87.444 78.628 L 87.247 77.938 L 87.247 70.157 L 87.444 69.566 Z M 91.089 57.843 L 92.763 57.843 L 94.438 58.533 L 95.620 59.617 L 96.507 61.488 L 96.507 63.360 L 95.817 65.034 L 94.241 66.512 L 92.566 67.103 L 90.498 66.906 L 89.217 66.216 L 87.937 64.837 L 87.346 63.360 L 87.346 61.587 L 88.232 59.617 L 89.414 58.533 Z" fill="#FFFDF5" fill-rule="evenodd"/>
  <path d="M 84.785 54.396 L 84.785 55.676 L 99.068 55.676 L 99.068 54.396 Z" fill="#FFFDF5" fill-rule="evenodd"/>
  <path d="M 92.074 38.339 L 91.483 39.325 L 91.483 45.333 L 90.104 46.318 L 89.611 47.303 L 89.513 48.190 L 88.331 49.175 L 87.444 50.357 L 86.853 51.835 L 86.656 53.509 L 97.295 53.509 L 97.196 52.229 L 96.507 50.357 L 95.719 49.274 L 94.438 48.190 L 94.438 47.500 L 94.044 46.515 L 93.354 45.826 L 92.566 45.432 L 92.566 39.226 Z" fill="#FFFDF5" fill-rule="evenodd"/>
  <path d="M 89.119 32.922 L 86.755 31.543 L 84.095 30.853 L 83.405 29.179 L 81.731 27.208 L 78.973 25.829 L 77.495 25.534 L 74.442 25.632 L 71.979 26.322 L 69.910 27.307 L 67.743 28.883 L 64.985 31.838 L 63.507 34.005 L 61.045 38.635 L 57.006 40.704 L 51.982 44.250 L 46.466 48.880 L 42.230 53.017 L 50.012 48.978 L 55.430 46.909 L 55.529 47.008 L 54.839 47.697 L 51.687 50.062 L 47.550 52.623 L 37.404 58.040 L 31.592 60.799 L 38.192 60.799 L 45.383 59.814 L 52.770 57.745 L 57.006 56.070 L 60.257 54.494 L 60.355 54.691 L 58.878 56.070 L 55.135 58.631 L 52.672 59.814 L 49.520 60.897 L 46.368 61.587 L 42.624 62.079 L 35.237 62.276 L 28.144 66.118 L 18.294 71.930 L 17.801 72.521 L 17.703 73.210 L 18.097 73.801 L 18.589 73.998 L 19.771 73.900 L 22.037 72.915 L 22.234 73.013 L 19.870 75.771 L 18.983 77.446 L 18.983 78.234 L 19.279 78.726 L 19.870 79.022 L 20.559 79.022 L 21.446 78.628 L 33.562 68.876 L 38.192 65.625 L 37.995 66.118 L 35.138 69.566 L 38.389 68.482 L 42.230 68.186 L 45.777 69.960 L 48.732 70.748 L 48.830 71.043 L 48.535 71.733 L 52.573 75.673 L 54.741 78.234 L 47.747 79.318 L 40.063 81.091 L 34.941 82.667 L 30.114 84.538 L 24.598 87.198 L 22.825 88.281 L 25.189 91.729 L 30.114 88.675 L 34.055 86.705 L 38.290 84.932 L 44.102 82.962 L 51.391 81.189 L 56.120 80.500 L 56.711 81.879 L 56.711 82.864 L 56.415 83.849 L 57.105 83.849 L 58.188 82.962 L 58.582 82.076 L 58.681 80.697 L 59.469 81.386 L 59.863 82.273 L 59.863 83.061 L 60.454 82.962 L 61.045 81.977 L 60.946 79.909 L 65.970 79.909 L 66.266 80.598 L 66.266 81.977 L 66.069 82.371 L 66.266 82.765 L 67.054 82.470 L 67.743 81.780 L 68.334 80.204 L 68.925 80.697 L 69.221 81.288 L 69.319 82.765 L 70.206 82.371 L 71.092 80.500 L 77.003 81.386 L 77.101 80.598 L 76.806 80.106 L 70.698 79.219 L 69.516 78.037 L 67.448 77.544 L 58.976 71.733 L 59.863 70.452 L 61.734 70.058 L 65.084 68.876 L 69.418 66.610 L 72.176 64.542 L 74.737 61.882 L 76.806 58.828 L 77.791 56.858 L 78.874 53.903 L 79.859 49.077 L 80.056 42.575 L 80.844 39.423 L 81.632 37.945 L 83.110 36.172 L 86.065 34.990 Z M 52.179 72.127 L 53.066 71.142 L 55.923 71.043 L 56.021 71.240 L 55.233 72.225 L 59.764 74.491 L 64.099 77.249 L 64.394 77.643 L 63.901 77.938 L 58.681 77.938 L 56.711 77.643 Z M 63.409 48.781 L 61.636 50.554 L 59.666 52.130 L 57.105 53.805 L 54.938 54.888 L 52.179 55.972 L 48.732 56.957 L 44.792 57.646 L 43.117 57.646 L 48.141 54.987 L 50.899 53.214 L 52.573 53.017 L 55.332 52.229 L 63.212 48.682 Z M 70.994 44.742 L 70.994 48.288 L 70.206 51.047 L 69.319 52.918 L 67.251 55.873 L 65.182 57.942 L 63.310 59.420 L 58.976 61.882 L 55.529 63.163 L 53.164 63.754 L 47.648 64.345 L 44.496 64.148 L 43.117 63.852 L 43.511 63.655 L 47.747 63.163 L 52.770 61.981 L 56.711 60.503 L 60.257 58.533 L 64.000 55.479 L 66.463 52.721 L 68.827 49.175 L 70.107 46.515 L 70.698 44.644 Z M 81.731 34.005 L 83.307 32.331 L 85.868 32.528 L 87.641 32.922 L 85.179 33.217 L 81.928 34.104 Z M 76.707 30.361 L 78.086 30.262 L 78.480 30.459 L 79.268 31.444 L 79.268 32.725 L 78.283 33.808 L 77.594 34.005 L 76.707 33.808 L 75.919 33.119 L 75.624 32.528 L 75.722 31.444 Z" fill="#FFFDF5" fill-rule="evenodd"/>
  <path d="M 38.192 21.791 L 44.693 18.540 L 48.929 17.062 L 52.179 16.176 L 56.218 15.388 L 60.552 14.895 L 68.137 14.895 L 75.525 16.077 L 79.268 17.062 L 84.095 18.836 L 90.596 22.283 L 93.354 24.155 L 96.507 26.716 L 94.438 24.943 L 90.990 22.480 L 88.035 20.707 L 84.095 18.737 L 77.200 16.274 L 72.373 15.191 L 68.630 14.698 L 65.478 14.501 L 60.552 14.600 L 56.218 15.092 L 53.164 15.683 L 49.126 16.767 L 44.595 18.442 L 41.245 20.018 Z" fill="#FFFDF5" fill-rule="evenodd"/>
</svg>