<?xml version="1.0" encoding="UTF-8"?>
<svg xmlns="http://www.w3.org/2000/svg" viewBox="0 0 128 128">
  <circle cx="64" cy="64" r="56" fill="#78C8EF"/>
  <circle cx="64" cy="64" r="51.059" fill="#F7FBFD"/>
  <circle cx="64" cy="64" r="49.218" fill="#0B3556"/>
  <path d="M 42.346 94.955 L 42.443 94.955 L 42.540 94.955 L 42.637 94.955 L 42.734 94.955 L 42.830 94.955 L 42.927 94.955 L 43.024 94.955 L 43.121 94.955 L 43.218 94.955 L 43.315 94.955 L 43.412 94.955 L 43.509 94.955 L 43.606 94.955 L 43.702 94.955 L 43.799 94.955 L 43.896 94.955 L 43.993 94.955 L 44.090 94.955 L 44.187 94.955 L 44.284 94.955 L 44.381 94.955 L 44.478 94.955 L 44.574 94.955 L 44.671 94.955 L 44.768 94.955 L 44.865 94.955 L 44.962 94.955 L 45.059 94.955 L 45.156 94.955 L 45.253 94.955 L 45.349 94.955 L 45.446 94.955 L 45.543 94.955 L 45.640 94.955 L 45.737 94.955 L 45.834 94.955 L 45.931 94.955 L 46.028 94.955 L 46.125 94.955 L 46.028 94.955 L 45.931 94.955 L 45.834 94.955 L 45.737 94.955 L 45.640 94.955 L 45.543 94.955 L 45.446 94.955 L 45.349 94.955 L 45.253 94.955 L 45.156 94.955 L 45.059 94.955 L 44.962 94.955 L 44.865 94.955 L 44.768 94.955 L 44.671 94.955 L 44.574 94.955 L 44.478 94.955 L 44.381 94.955 L 44.284 94.955 L 44.187 94.955 L 44.090 94.955 L 43.993 94.955 L 43.896 94.955 L 43.799 94.955 L 43.702 94.955 L 43.606 94.955 L 43.509 94.955 L 43.412 94.955 L 43.315 94.955 L 43.218 94.955 L 43.121 94.955 L 43.024 94.955 L 42.927 94.955 L 42.830 94.955 L 42.734 94.955 L 42.637 94.955 L 42.540 94.955 L 42.443 94.955 Z" fill="#78C8EF" fill-rule="evenodd"/>
  <path d="M 99.412 86.720 L 100.187 87.592 L 99.896 86.720 L 99.799 86.913 Z" fill="#78C8EF" fill-rule="evenodd"/>
  <path d="M 100.187 90.983 L 99.315 89.820 L 97.474 88.076 L 95.827 86.913 L 93.986 85.945 L 91.855 85.170 L 89.529 84.685 L 84.782 84.588 L 80.131 85.460 L 76.353 86.720 L 71.896 88.657 L 61.529 93.792 L 54.941 96.118 L 51.356 96.893 L 47.481 97.280 L 43.315 97.183 L 40.699 96.796 L 44.187 98.055 L 48.837 98.927 L 53.779 99.024 L 57.751 98.540 L 61.239 97.765 L 66.277 96.118 L 80.810 89.723 L 84.685 88.561 L 88.367 87.979 L 91.661 87.979 L 94.761 88.464 L 97.765 89.529 Z" fill="#78C8EF" fill-rule="evenodd"/>
  <path d="M 90.595 52.228 L 90.014 51.841 L 90.014 52.228 L 89.433 52.228 Z" fill="#78C8EF" fill-rule="evenodd"/>
  <path d="M 88.076 40.893 L 84.104 40.602 L 79.453 40.699 L 75.578 41.087 L 70.540 41.958 L 65.696 43.218 L 60.851 44.865 L 57.363 46.318 L 53.197 48.450 L 49.612 50.678 L 46.706 52.907 L 43.218 56.298 L 41.571 58.332 L 40.021 60.754 L 38.567 63.855 L 37.792 66.277 L 37.211 69.862 L 39.924 64.533 L 43.412 59.882 L 47.965 55.619 L 53.391 52.035 L 57.460 50.000 L 61.336 48.450 L 69.280 46.125 L 74.028 45.253 L 78.194 44.768 L 82.844 44.574 L 83.038 44.768 L 82.941 45.059 L 84.588 43.509 L 85.073 43.218 L 85.363 43.412 L 86.332 42.249 Z" fill="#78C8EF" fill-rule="evenodd"/>
  <path d="M 81.585 109.682 L 75.384 111.619 L 70.249 112.491 L 74.997 111.716 L 78.291 110.844 Z" fill="#F7FBFD" fill-rule="evenodd"/>
  <path d="M 100.284 96.893 L 96.118 100.962 L 91.855 104.256 L 96.118 100.962 Z" fill="#F7FBFD" fill-rule="evenodd"/>
  <path d="M 27.716 96.893 L 27.813 96.990 L 27.910 97.087 L 28.007 97.183 L 28.104 97.280 L 28.201 97.377 L 28.298 97.474 L 28.394 97.571 L 28.491 97.668 L 28.588 97.765 L 28.685 97.862 L 28.782 97.958 L 28.879 98.055 L 28.976 98.152 L 29.073 98.249 L 29.170 98.346 L 29.266 98.443 L 29.363 98.540 L 29.460 98.637 L 29.557 98.734 L 29.654 98.830 L 29.751 98.927 L 29.848 99.024 L 29.945 99.121 L 30.042 99.218 L 30.138 99.315 L 30.235 99.412 L 30.332 99.509 L 30.429 99.606 L 30.526 99.702 L 30.623 99.799 L 30.720 99.896 L 30.817 99.993 L 30.913 100.090 L 31.010 100.187 L 31.107 100.284 L 31.204 100.284 L 31.301 100.381 L 31.398 100.478 L 31.495 100.574 L 31.592 100.671 L 31.689 100.768 L 31.785 100.865 L 31.882 100.962 L 31.785 100.865 L 31.689 100.768 L 31.592 100.671 L 31.495 100.574 L 31.398 100.478 L 31.301 100.381 L 31.204 100.284 L 31.107 100.284 L 31.010 100.187 L 30.913 100.090 L 30.817 99.993 L 30.720 99.896 L 30.623 99.799 L 30.526 99.702 L 30.429 99.606 L 30.332 99.509 L 30.235 99.412 L 30.138 99.315 L 30.042 99.218 L 29.945 99.121 L 29.848 99.024 L 29.751 98.927 L 29.654 98.830 L 29.557 98.734 L 29.460 98.637 L 29.363 98.540 L 29.266 98.443 L 29.170 98.346 L 29.073 98.249 L 28.976 98.152 L 28.879 98.055 L 28.782 97.958 L 28.685 97.862 L 28.588 97.765 L 28.491 97.668 L 28.394 97.571 L 28.298 97.474 L 28.201 97.377 L 28.104 97.280 L 28.007 97.183 L 27.910 97.087 L 27.813 96.990 Z" fill="#F7FBFD" fill-rule="evenodd"/>
  <path d="M 100.090 87.398 L 98.927 84.782 L 97.668 82.941 L 96.215 81.294 L 93.792 79.356 L 90.789 77.806 L 88.173 77.031 L 85.557 76.644 L 82.651 76.644 L 77.612 77.516 L 72.865 79.163 L 67.439 81.779 L 56.491 88.076 L 52.519 89.917 L 48.062 91.467 L 43.121 92.436 L 38.567 92.533 L 35.564 92.145 L 33.336 91.564 L 29.557 89.917 L 30.913 91.080 L 33.239 92.533 L 35.176 93.405 L 38.471 94.374 L 41.862 94.858 L 46.512 94.858 L 49.031 94.567 L 53.391 93.599 L 58.332 91.855 L 71.799 85.170 L 77.128 82.941 L 80.713 81.875 L 84.976 81.197 L 89.045 81.294 L 91.467 81.779 L 93.211 82.360 L 95.246 83.329 L 98.152 85.363 Z" fill="#F7FBFD" fill-rule="evenodd"/>
  <path d="M 49.322 63.952 L 46.125 66.180 L 44.090 68.311 L 44.284 70.249 L 44.865 71.702 L 45.834 72.865 L 46.803 73.543 L 46.512 70.249 L 46.900 68.021 L 47.772 65.986 Z" fill="#F7FBFD" fill-rule="evenodd"/>
  <path d="M 104.547 44.187 L 99.606 41.571 L 97.183 40.602 L 92.824 39.246 L 86.429 38.083 L 80.131 37.889 L 73.253 38.664 L 66.374 40.311 L 59.495 42.830 L 53.197 45.931 L 49.031 48.547 L 45.446 51.356 L 42.152 54.651 L 39.052 58.817 L 37.114 62.498 L 36.242 64.727 L 34.595 71.315 L 33.239 73.640 L 29.557 78.097 L 27.716 80.907 L 26.166 84.685 L 25.682 87.979 L 27.522 86.042 L 29.654 84.588 L 32.076 83.329 L 33.529 81.972 L 34.208 80.616 L 34.886 78.097 L 35.273 77.806 L 36.145 81.585 L 37.308 83.522 L 39.052 85.266 L 42.734 87.979 L 44.865 90.111 L 44.478 86.623 L 43.702 84.007 L 42.443 81.197 L 39.246 76.159 L 38.471 74.415 L 38.471 73.931 L 40.408 70.152 L 42.927 66.955 L 46.609 63.661 L 50.581 61.045 L 56.685 58.235 L 62.208 56.491 L 70.540 54.651 L 76.837 53.875 L 76.837 54.263 L 73.059 55.813 L 71.315 57.170 L 69.571 59.979 L 68.021 63.952 L 71.412 62.789 L 74.900 60.851 L 77.031 59.204 L 80.810 55.135 L 84.976 55.232 L 83.426 54.554 L 82.166 53.488 L 81.197 51.841 L 81.003 51.066 L 80.907 49.516 L 81.294 47.772 L 81.972 46.318 L 83.232 44.671 L 79.453 44.768 L 74.028 45.349 L 69.280 46.221 L 64.533 47.481 L 58.817 49.516 L 54.651 51.453 L 51.260 53.391 L 47.481 56.104 L 46.125 57.266 L 42.346 61.239 L 40.021 64.533 L 37.599 69.377 L 37.308 69.474 L 37.211 68.893 L 37.502 67.149 L 38.471 63.855 L 39.924 60.754 L 41.765 57.945 L 43.121 56.298 L 47.287 52.325 L 50.775 49.806 L 54.069 47.869 L 58.235 45.834 L 62.692 44.090 L 70.540 41.862 L 75.578 40.990 L 79.453 40.602 L 84.104 40.505 L 87.979 40.796 L 88.076 41.087 L 85.945 42.734 L 84.394 44.865 L 83.522 46.900 L 83.232 49.322 L 83.426 50.581 L 84.104 52.131 L 85.363 53.488 L 87.301 54.457 L 89.626 54.651 L 92.145 54.166 L 95.633 53.003 L 99.509 51.453 L 101.737 50.291 L 103.384 48.740 L 104.450 47.190 L 95.924 49.225 L 95.827 48.934 L 97.958 46.997 L 99.606 45.931 L 101.931 44.865 Z M 88.270 43.024 L 88.464 43.024 L 88.561 43.315 L 87.592 45.737 L 87.495 48.159 L 87.882 49.419 L 88.561 50.581 L 89.336 51.356 L 90.401 52.035 L 90.304 52.325 L 88.948 52.228 L 87.398 51.550 L 86.332 50.484 L 85.654 48.934 L 85.654 47.287 L 86.138 45.737 L 87.010 44.284 Z M 94.277 41.862 L 95.730 42.055 L 96.311 42.540 L 96.796 43.509 L 96.796 44.187 L 96.408 45.059 L 95.246 45.834 L 94.180 45.834 L 93.599 45.543 L 92.727 44.284 L 92.920 42.927 L 93.502 42.249 Z" fill="#F7FBFD" fill-rule="evenodd"/>
  <path d="M 57.654 42.152 L 61.529 40.311 L 66.180 38.471 L 70.346 37.211 L 74.609 36.339 L 71.315 34.111 L 68.990 32.948 L 66.664 32.076 L 62.208 31.107 L 58.332 31.107 L 59.301 31.689 L 60.754 33.239 L 61.433 34.789 L 61.529 36.339 L 61.239 37.599 L 60.464 39.149 L 59.689 40.215 Z" fill="#F7FBFD" fill-rule="evenodd"/>
</svg>